<svg width="527" height="255" viewBox="0 0 527 255" fill="none" xmlns="http://www.w3.org/2000/svg">
<path d="M39.5443 8.72255C121.006 -12.2007 117.54 43.5946 167.804 36.6202" stroke="#E84B4B" stroke-width="8"/>
<path d="M32.2342 33.9757C114.118 13.0525 110.634 68.8478 161.158 61.8734" stroke="#E84B4B" stroke-width="8"/>
<path d="M25.5886 58.5643C107.051 37.6411 103.584 93.4364 153.848 86.462" stroke="#E84B4B" stroke-width="8"/>
<path d="M18.2785 83.0583C100.163 62.5535 96.6782 117.233 147.203 110.398" stroke="#E84B4B" stroke-width="8"/>
<path d="M14.9557 107.077C96.4178 86.1536 92.9513 141.949 143.215 134.974" stroke="#E84B4B" stroke-width="8"/>
<path d="M7.64557 131.665C89.5298 110.742 86.0453 166.537 136.57 159.563" stroke="#E84B4B" stroke-width="8"/>
<path d="M1 155.589C82.4621 134.666 78.9956 190.462 129.259 183.487" stroke="#E84B4B" stroke-width="8"/>
<path d="M397.076 75.1781C478.96 54.2549 475.476 110.05 526 103.076" stroke="#E84B4B" stroke-width="8"/>
<path d="M390.43 101.001C471.893 80.4966 468.426 135.176 518.69 128.341" stroke="#E84B4B" stroke-width="8"/>
<path d="M383.12 125.02C465.004 104.097 461.52 159.892 512.044 152.918" stroke="#E84B4B" stroke-width="8"/>
<path d="M376.475 149.609C457.937 128.685 454.47 184.481 504.734 177.506" stroke="#E84B4B" stroke-width="8"/>
<path d="M372.487 173.533C454.372 152.609 450.887 208.405 501.411 201.43" stroke="#E84B4B" stroke-width="8"/>
<path d="M365.842 198.121C447.304 177.198 443.837 232.993 494.101 226.019" stroke="#E84B4B" stroke-width="8"/>
<path d="M359.196 222.615C440.658 202.111 437.192 256.79 487.456 249.955" stroke="#E84B4B" stroke-width="8"/>
<rect x="189.975" y="4.59217" width="188.65" height="206.318" transform="rotate(11.8716 189.975 4.59217)" fill="#E84B4B" stroke="#E84B4B"/>
<path d="M214.346 137.38L209.968 136.43L218.792 95.7766L228.236 97.8265C231.488 98.5324 233.781 99.8378 235.114 101.743C236.489 103.656 236.877 105.989 236.28 108.741L233.972 119.374C233.366 122.167 232.061 124.154 230.059 125.335C228.065 126.474 225.421 126.686 222.127 125.971L217.061 124.872L214.346 137.38ZM229.594 118.423L231.902 107.791C232.246 106.206 232.033 104.872 231.264 103.789C230.496 102.705 229.215 101.968 227.422 101.579L222.356 100.48L217.876 121.119L222.942 122.219C226.653 123.024 228.87 121.759 229.594 118.423ZM252.405 103.072L258.972 104.498L259.342 147.147L254.964 146.197L254.874 136.353L242.928 133.761L238.765 142.681L234.387 141.73L252.405 103.072ZM254.598 108.657L244.555 130.184L254.813 132.411L254.598 108.657ZM277.638 147.189L276.824 150.941L266.191 148.634L267.006 144.881L270.133 145.56L277.328 112.412L274.201 111.733L275.015 107.98L285.648 110.288L284.833 114.041L281.706 113.362L274.511 146.51L277.638 147.189ZM297.499 155.429L287.429 153.243L296.253 112.59L306.323 114.776C309.575 115.482 311.868 116.787 313.201 118.692C314.575 120.605 314.964 122.938 314.367 125.69L309.344 148.831C308.738 151.625 307.433 153.612 305.43 154.793C303.437 155.932 300.793 156.144 297.499 155.429ZM304.966 147.881L309.989 124.74C310.278 123.406 310.031 122.13 309.248 120.912C308.506 119.703 307.26 118.908 305.508 118.528L299.817 117.293L292.622 150.441L298.313 151.676C300.065 152.057 301.524 151.871 302.691 151.12C303.909 150.337 304.667 149.257 304.966 147.881Z" fill="#FFFAE9"/>
<path d="M245.489 47.5766L248.162 35.2633L249.804 35.6197L247.131 47.933C247.002 48.5271 247.027 49.0155 247.206 49.3982C247.401 49.7842 247.842 50.0519 248.53 50.2013C249.218 50.3506 249.909 50.2222 250.603 49.8162C251.297 49.4101 251.698 48.9569 251.806 48.4566L254.377 36.6124L256.019 36.9687L252.71 52.2137L252.006 52.061L251.722 50.4276C251.256 50.9158 250.712 51.2726 250.09 51.4978C249.487 51.7107 248.865 51.7476 248.224 51.6085C245.926 51.1096 245.014 49.7656 245.489 47.5766ZM265.505 51.921C265.03 54.1101 263.471 54.9178 260.828 54.3442C258.186 53.7707 257.102 52.3894 257.577 50.2003L258.01 48.2068L259.652 48.5631L259.199 50.6505C259.076 51.2134 259.177 51.6936 259.5 52.0912C259.823 52.4888 260.368 52.7707 261.134 52.937C261.9 53.1033 262.512 53.0725 262.971 52.8446C263.43 52.6168 263.717 52.237 263.832 51.7054C263.951 51.1581 263.982 50.7146 263.925 50.3747C263.887 50.0226 263.727 49.6277 263.445 49.19L260.193 44.26C259.813 43.67 259.579 43.128 259.49 42.6338C259.42 42.1274 259.461 41.5224 259.614 40.8188C259.841 39.7712 260.336 39.0355 261.1 38.6118C261.882 38.1758 262.93 38.1003 264.243 38.3854C266.76 38.9318 267.782 40.2995 267.306 42.4886L266.874 44.4822L265.232 44.1258L265.685 42.0384C265.807 41.4755 265.715 40.997 265.407 40.6028C265.115 40.212 264.602 39.9369 263.867 39.7774C263.132 39.6179 262.543 39.6537 262.1 39.885C261.673 40.1197 261.4 40.5106 261.281 41.0579C261.162 41.6051 261.123 42.047 261.165 42.3835C261.207 42.72 261.378 43.1009 261.678 43.5264L265.001 48.4717C265.346 49.0704 265.553 49.623 265.623 50.1294C265.697 50.6202 265.657 51.2174 265.505 51.921ZM280.879 55.2581L281.159 53.9682L282.801 54.3245L282.521 55.6145C282.293 56.6621 281.796 57.4056 281.03 57.845C280.266 58.2687 279.244 58.3414 277.962 58.0631C276.679 57.7848 275.771 57.293 275.237 56.5875C274.705 55.8665 274.554 54.9821 274.781 53.9345L276.817 44.553C277.045 43.5054 277.54 42.7697 278.303 42.3459C279.07 41.9066 280.094 41.826 281.376 42.1043C282.659 42.3826 283.565 42.8823 284.096 43.6034C284.631 44.3088 284.784 45.1853 284.557 46.2329L284.073 48.461L282.432 48.1047L282.915 45.8766C283.187 44.6257 282.58 43.8391 281.094 43.5166C279.609 43.1942 278.731 43.6585 278.459 44.9093L276.423 54.2909C276.151 55.5417 276.758 56.3284 278.244 56.6508C279.729 56.9732 280.608 56.509 280.879 55.2581ZM286.396 56.4556L289.069 44.1424L290.711 44.4987L288.038 56.812C287.909 57.4062 287.934 57.8946 288.113 58.2772C288.307 58.6633 288.749 58.931 289.437 59.0803C290.125 59.2296 290.816 59.1013 291.509 58.6952C292.203 58.2892 292.605 57.836 292.713 57.3356L295.284 45.4914L296.926 45.8478L293.617 61.0928L292.913 60.9401L292.629 59.3067C292.163 59.7949 291.619 60.1516 290.997 60.3768C290.394 60.5898 289.772 60.6267 289.131 60.4875C286.833 59.9886 285.921 58.6447 286.396 56.4556ZM306.411 60.8001C305.936 62.9891 304.378 63.7968 301.735 63.2233C299.093 62.6497 298.009 61.2684 298.484 59.0794L298.917 57.0858L300.559 57.4422L300.105 59.5296C299.983 60.0925 300.084 60.5727 300.407 60.9703C300.73 61.3678 301.274 61.6497 302.041 61.816C302.807 61.9823 303.419 61.9516 303.878 61.7237C304.337 61.4958 304.624 61.1161 304.739 60.5844C304.858 60.0372 304.889 59.5936 304.832 59.2538C304.793 58.9016 304.633 58.5068 304.352 58.0691L301.1 53.139C300.72 52.5491 300.486 52.0071 300.397 51.5129C300.326 51.0065 300.368 50.4015 300.52 49.6978C300.748 48.6502 301.243 47.9146 302.006 47.4908C302.789 47.0548 303.836 46.9794 305.15 47.2645C307.667 47.8109 308.688 49.1786 308.213 51.3676L307.781 53.3612L306.139 53.0048L306.592 50.9175C306.714 50.3546 306.621 49.876 306.314 49.4819C306.022 49.0911 305.509 48.8159 304.774 48.6564C304.039 48.4969 303.45 48.5328 303.007 48.7641C302.58 48.9987 302.306 49.3897 302.188 49.9369C302.069 50.4842 302.03 50.9261 302.072 51.2625C302.113 51.599 302.284 51.98 302.585 52.4054L305.908 57.3507C306.253 57.9495 306.46 58.5021 306.53 59.0085C306.604 59.4993 306.564 60.0965 306.411 60.8001ZM312.955 49.327L318.115 50.447L317.81 51.8542L314.291 51.0906L311.853 62.325C311.758 62.7628 311.788 63.154 311.942 63.4986C312.112 63.8466 312.4 64.0647 312.807 64.153C313.229 64.2446 313.58 64.1734 313.86 63.9395C314.144 63.6899 314.334 63.3384 314.433 62.885L315.039 60.094L316.68 60.4503L316.095 63.1475C315.881 64.1326 315.451 64.8332 314.804 65.2495C314.176 65.6535 313.416 65.7587 312.525 65.5653C311.634 65.3718 310.97 64.9577 310.535 64.3229C310.119 63.6759 310.018 62.8599 310.232 61.8748L312.955 49.327ZM329.088 55.8987L327.052 65.2802C326.825 66.3278 326.312 67.0679 325.514 67.5005C324.735 67.9209 323.681 67.9868 322.352 67.6983C321.039 67.4132 320.107 66.9163 319.557 66.2075C319.01 65.483 318.85 64.597 319.078 63.5493L321.114 54.1678C321.341 53.1202 321.845 52.3862 322.623 51.9659C323.421 51.5333 324.477 51.4595 325.79 51.7446C327.119 52.0331 328.057 52.5395 328.604 53.264C329.154 53.9728 329.316 54.8511 329.088 55.8987ZM325.41 64.9239L327.447 55.5423C327.718 54.2914 327.072 53.4963 325.508 53.1569C323.945 52.8175 323.027 53.2733 322.756 54.5242L320.719 63.9057C320.448 65.1566 321.094 65.9517 322.658 66.2911C324.221 66.6305 325.139 66.1747 325.41 64.9239ZM332.391 69.5089L330.749 69.1525L334.058 53.9075L334.762 54.0603L335.022 55.6886C335.473 55.197 336 54.8447 336.602 54.6317C337.209 54.4031 337.825 54.3567 338.45 54.4924C340.029 54.8352 340.914 55.6248 341.104 56.8613C342.102 55.8828 343.211 55.5259 344.431 55.7906C346.635 56.2691 347.5 57.6029 347.025 59.7919L344.352 72.1052L342.711 71.7489L345.383 59.4356C345.655 58.1847 345.228 57.4371 344.102 57.1927C343.445 57.0502 342.778 57.1836 342.099 57.5931C341.437 58.0059 341.051 58.4625 340.942 58.9629L338.372 70.8071L336.73 70.4507L339.403 58.1374C339.674 56.8865 339.247 56.1389 338.121 55.8946C337.464 55.752 336.799 55.8777 336.124 56.2715C335.468 56.653 335.086 57.094 334.977 57.5943L332.391 69.5089ZM356.892 71.7572C356.417 73.9462 354.858 74.754 352.216 74.1804C349.573 73.6068 348.49 72.2255 348.965 70.0365L349.398 68.0429L351.039 68.3993L350.586 70.4867C350.464 71.0496 350.565 71.5298 350.888 71.9274C351.211 72.3249 351.755 72.6069 352.521 72.7732C353.287 72.9395 353.9 72.9087 354.359 72.6808C354.817 72.4529 355.105 72.0732 355.22 71.5416C355.339 70.9943 355.37 70.5508 355.312 70.2109C355.274 69.8588 355.114 69.4639 354.833 69.0262L351.58 64.0961C351.201 63.5062 350.967 62.9642 350.877 62.47C350.807 61.9636 350.848 61.3586 351.001 60.655C351.229 59.6074 351.724 58.8717 352.487 58.4479C353.269 58.012 354.317 57.9365 355.631 58.2216C358.148 58.768 359.169 60.1357 358.694 62.3248L358.261 64.3183L356.62 63.962L357.073 61.8746C357.195 61.3117 357.102 60.8332 356.795 60.439C356.503 60.0482 355.99 59.7731 355.255 59.6136C354.52 59.454 353.931 59.4899 353.488 59.7212C353.06 59.9558 352.787 60.3468 352.668 60.8941C352.55 61.4413 352.511 61.8832 352.553 62.2197C352.594 62.5561 352.765 62.9371 353.066 63.3625L356.388 68.3079C356.733 68.9066 356.941 69.4592 357.011 69.9656C357.085 70.4564 357.045 71.0536 356.892 71.7572Z" fill="#FFFAE9"/>
<path d="M167.033 191.865L165.391 191.508L168.7 176.263L172.242 177.032C173.461 177.297 174.321 177.786 174.821 178.501C175.336 179.218 175.482 180.093 175.258 181.125L174.393 185.112C174.165 186.16 173.676 186.905 172.925 187.348C172.177 187.775 171.186 187.854 169.951 187.586L168.051 187.174L167.033 191.865ZM172.751 184.756L173.616 180.769C173.745 180.174 173.666 179.674 173.377 179.268C173.089 178.861 172.609 178.585 171.936 178.439L170.036 178.027L168.356 185.767L170.256 186.179C171.648 186.481 172.479 186.007 172.751 184.756ZM186.709 183.242L184.672 192.624C184.445 193.671 183.932 194.411 183.134 194.844C182.355 195.264 181.302 195.33 179.972 195.042C178.659 194.757 177.727 194.26 177.177 193.551C176.63 192.826 176.471 191.94 176.698 190.893L178.734 181.511C178.962 180.464 179.465 179.73 180.244 179.309C181.042 178.877 182.097 178.803 183.411 179.088C184.74 179.376 185.678 179.883 186.224 180.607C186.775 181.316 186.936 182.194 186.709 183.242ZM183.031 192.267L185.067 182.886C185.338 181.635 184.692 180.84 183.129 180.5C181.565 180.161 180.648 180.617 180.376 181.868L178.34 191.249C178.068 192.5 178.714 193.295 180.278 193.634C181.841 193.974 182.759 193.518 183.031 192.267ZM196.464 195.183C195.989 197.372 194.43 198.18 191.788 197.606C189.145 197.033 188.062 195.651 188.537 193.462L188.969 191.469L190.611 191.825L190.158 193.913C190.036 194.475 190.136 194.956 190.459 195.353C190.782 195.751 191.327 196.033 192.093 196.199C192.859 196.365 193.472 196.335 193.931 196.107C194.389 195.879 194.676 195.499 194.792 194.967C194.911 194.42 194.941 193.977 194.884 193.637C194.846 193.285 194.686 192.89 194.405 192.452L191.152 187.522C190.773 186.932 190.538 186.39 190.449 185.896C190.379 185.389 190.42 184.784 190.573 184.081C190.8 183.033 191.296 182.298 192.059 181.874C192.841 181.438 193.889 181.362 195.203 181.647C197.72 182.194 198.741 183.562 198.266 185.751L197.833 187.744L196.191 187.388L196.644 185.3C196.767 184.738 196.674 184.259 196.367 183.865C196.075 183.474 195.562 183.199 194.827 183.039C194.092 182.88 193.503 182.916 193.06 183.147C192.632 183.382 192.359 183.773 192.24 184.32C192.121 184.867 192.083 185.309 192.124 185.645C192.166 185.982 192.337 186.363 192.638 186.788L195.96 191.734C196.305 192.332 196.513 192.885 196.583 193.391C196.656 193.882 196.617 194.479 196.464 195.183ZM203.008 183.71L208.168 184.83L207.862 186.237L204.344 185.474L201.906 196.708C201.811 197.146 201.84 197.537 201.995 197.882C202.165 198.23 202.453 198.448 202.86 198.536C203.282 198.628 203.633 198.556 203.913 198.322C204.196 198.073 204.387 197.721 204.486 197.268L205.091 194.477L206.733 194.833L206.148 197.531C205.934 198.516 205.503 199.216 204.856 199.632C204.228 200.036 203.469 200.142 202.578 199.948C201.686 199.755 201.023 199.341 200.588 198.706C200.172 198.059 200.07 197.243 200.284 196.258L203.008 183.71ZM216.116 202.519L215.413 202.366L215.129 200.732C214.678 201.224 214.15 201.584 213.544 201.813C212.941 202.026 212.319 202.063 211.678 201.923C209.426 201.435 208.538 200.096 209.013 197.907L209.522 195.561C209.997 193.372 211.361 192.522 213.612 193.011L216.333 193.602L217.168 189.755C217.29 189.192 217.205 188.715 216.913 188.325C216.622 187.934 216.124 187.662 215.42 187.509C214.029 187.207 213.204 187.65 212.946 188.839L212.646 190.223L211.004 189.866L211.284 188.576C211.511 187.529 211.991 186.79 212.723 186.359C213.474 185.916 214.475 185.831 215.726 186.102C216.977 186.374 217.852 186.867 218.352 187.581C218.871 188.283 219.017 189.158 218.789 190.205L216.116 202.519ZM216.027 195.009L213.307 194.418C212.65 194.276 212.161 194.341 211.84 194.616C211.518 194.89 211.293 195.324 211.164 195.918L210.655 198.263C210.526 198.857 210.551 199.346 210.73 199.728C210.909 200.111 211.326 200.374 211.983 200.516C212.64 200.659 213.304 200.541 213.975 200.163C214.65 199.769 215.058 199.325 215.198 198.832L216.027 195.009ZM225.067 197.83L225.372 196.423L229.641 197.35L228.597 202.158C228.37 203.205 227.873 203.949 227.106 204.388C226.343 204.812 225.32 204.885 224.038 204.606C222.756 204.328 221.847 203.836 221.313 203.131C220.782 202.41 220.63 201.525 220.857 200.478L222.894 191.096C223.121 190.049 223.616 189.313 224.38 188.889C225.146 188.45 226.171 188.369 227.453 188.648C228.735 188.926 229.641 189.425 230.173 190.147C230.707 190.852 230.861 191.729 230.633 192.776L230.353 194.066L228.712 193.71L228.992 192.42C229.263 191.169 228.656 190.382 227.171 190.06C225.685 189.737 224.807 190.202 224.535 191.453L222.499 200.834C222.228 202.085 222.834 202.872 224.32 203.194C225.805 203.516 226.684 203.052 226.955 201.801L227.693 198.401L225.067 197.83ZM238.682 204.347L238.962 203.057L240.604 203.413L240.324 204.703C240.097 205.751 239.6 206.494 238.833 206.934C238.07 207.357 237.047 207.43 235.765 207.152C234.483 206.873 233.574 206.382 233.04 205.676C232.509 204.955 232.357 204.071 232.584 203.023L234.62 193.642C234.848 192.594 235.343 191.858 236.106 191.435C236.873 190.995 237.897 190.915 239.18 191.193C240.462 191.471 241.368 191.971 241.9 192.692C242.434 193.397 242.588 194.274 242.36 195.322L241.24 200.481L235.142 199.158L234.226 203.379C233.954 204.63 234.561 205.417 236.047 205.739C237.532 206.062 238.411 205.598 238.682 204.347ZM236.262 193.998L235.448 197.751L239.904 198.718L240.718 194.965C240.99 193.714 240.383 192.928 238.898 192.605C237.412 192.283 236.534 192.747 236.262 193.998ZM257.527 208.437C257.051 210.626 255.493 211.434 252.85 210.86C250.208 210.287 249.124 208.905 249.599 206.716L250.032 204.723L251.674 205.079L251.221 207.166C251.098 207.729 251.199 208.21 251.522 208.607C251.845 209.005 252.39 209.287 253.156 209.453C253.922 209.619 254.534 209.588 254.993 209.361C255.452 209.133 255.739 208.753 255.854 208.221C255.973 207.674 256.004 207.231 255.947 206.891C255.908 206.539 255.749 206.144 255.467 205.706L252.215 200.776C251.835 200.186 251.601 199.644 251.512 199.15C251.442 198.643 251.483 198.038 251.636 197.335C251.863 196.287 252.358 195.551 253.121 195.128C253.904 194.692 254.952 194.616 256.265 194.901C258.782 195.448 259.804 196.816 259.328 199.005L258.896 200.998L257.254 200.642L257.707 198.554C257.829 197.991 257.737 197.513 257.429 197.119C257.137 196.728 256.624 196.453 255.889 196.293C255.154 196.134 254.565 196.17 254.122 196.401C253.695 196.636 253.422 197.027 253.303 197.574C253.184 198.121 253.145 198.563 253.187 198.899C253.229 199.236 253.4 199.617 253.7 200.042L257.023 204.988C257.368 205.586 257.575 206.139 257.645 206.645C257.719 207.136 257.679 207.733 257.527 208.437ZM267.496 210.601L267.776 209.311L269.417 209.667L269.137 210.957C268.91 212.005 268.413 212.748 267.646 213.188C266.883 213.611 265.86 213.684 264.578 213.406C263.296 213.128 262.388 212.636 261.853 211.93C261.322 211.209 261.17 210.325 261.398 209.277L263.434 199.896C263.661 198.848 264.157 198.112 264.92 197.689C265.687 197.249 266.711 197.169 267.993 197.447C269.275 197.725 270.182 198.225 270.713 198.946C271.248 199.652 271.401 200.528 271.174 201.576L270.054 206.735L263.956 205.412L263.039 209.634C262.768 210.884 263.375 211.671 264.86 211.994C266.346 212.316 267.224 211.852 267.496 210.601ZM265.076 200.252L264.261 204.005L268.717 204.972L269.532 201.219C269.803 199.968 269.196 199.182 267.711 198.859C266.226 198.537 265.347 199.001 265.076 200.252ZM274.482 215.187L272.84 214.831L276.149 199.586L276.853 199.738L277.156 201.622C277.958 200.339 278.907 199.816 280.001 200.054C281.862 200.457 282.572 201.676 282.131 203.708L281.8 205.233L280.228 204.892L280.58 203.273C280.804 202.241 280.486 201.632 279.626 201.445C279.11 201.333 278.568 201.527 278.002 202.026C277.45 202.529 277.053 203.343 276.808 204.469L274.482 215.187ZM286.734 217.846L284.271 217.312L284.133 201.319L285.774 201.675L285.883 215.771L291.849 202.993L293.491 203.35L286.734 217.846ZM295.096 219.661L293.454 219.305L296.763 204.06L298.405 204.416L295.096 219.661ZM306.158 218.993L306.438 217.703L308.08 218.059L307.8 219.349C307.572 220.397 307.075 221.14 306.309 221.58C305.545 222.003 304.523 222.076 303.24 221.798C301.958 221.519 301.05 221.028 300.515 220.322C299.984 219.601 299.832 218.717 300.06 217.669L302.096 208.288C302.324 207.24 302.819 206.504 303.582 206.08C304.349 205.641 305.373 205.561 306.655 205.839C307.937 206.117 308.844 206.617 309.375 207.338C309.91 208.043 310.063 208.92 309.836 209.967L309.352 212.196L307.711 211.839L308.194 209.611C308.466 208.36 307.859 207.574 306.373 207.251C304.888 206.929 304.009 207.393 303.738 208.644L301.702 218.025C301.43 219.276 302.037 220.063 303.522 220.385C305.008 220.708 305.886 220.244 306.158 218.993ZM317.656 221.488L317.936 220.198L319.578 220.555L319.298 221.845C319.07 222.892 318.573 223.636 317.806 224.075C317.043 224.499 316.021 224.572 314.738 224.293C313.456 224.015 312.548 223.523 312.013 222.818C311.482 222.097 311.33 221.212 311.558 220.165L313.594 210.783C313.821 209.736 314.317 209 315.08 208.576C315.847 208.137 316.871 208.056 318.153 208.335C319.435 208.613 320.342 209.113 320.873 209.834C321.408 210.539 321.561 211.416 321.334 212.463L320.214 217.623L314.116 216.299L313.2 220.521C312.928 221.772 313.535 222.559 315.02 222.881C316.506 223.203 317.384 222.739 317.656 221.488ZM315.236 211.14L314.421 214.892L318.878 215.859L319.692 212.107C319.964 210.856 319.357 210.069 317.871 209.747C316.386 209.424 315.507 209.889 315.236 211.14Z" fill="#FFFAE9"/>
</svg>
